<?xml version="1.0" encoding="UTF-8" standalone="no"?>
<!-- Created with Inkscape (http://www.inkscape.org/) -->

<svg
   xmlns:dc="http://purl.org/dc/elements/1.1/"
   xmlns:cc="http://creativecommons.org/ns#"
   xmlns:rdf="http://www.w3.org/1999/02/22-rdf-syntax-ns#"
   xmlns:svg="http://www.w3.org/2000/svg"
   xmlns="http://www.w3.org/2000/svg"
   xmlns:sodipodi="http://sodipodi.sourceforge.net/DTD/sodipodi-0.dtd"
   xmlns:inkscape="http://www.inkscape.org/namespaces/inkscape"
   width="7.1116643mm"
   height="7.5560083mm"
   viewBox="0 0 6.4004978 6.8004075"
   version="1.1"
   id="svg8"
   inkscape:version="0.92.5 (2060ec1f9f, 2020-04-08)"
   sodipodi:docname="piece.svg">
  <defs
     id="defs2" />
  <sodipodi:namedview
     id="base"
     pagecolor="#ffffff"
     bordercolor="#666666"
     borderopacity="1.0"
     inkscape:pageopacity="0.0"
     inkscape:pageshadow="2"
     inkscape:zoom="16"
     inkscape:cx="-0.72913305"
     inkscape:cy="16.445846"
     inkscape:document-units="mm"
     inkscape:current-layer="g1000"
     showgrid="false"
     fit-margin-top="0"
     fit-margin-left="0"
     fit-margin-right="0"
     fit-margin-bottom="0"
     inkscape:window-width="1848"
     inkscape:window-height="1053"
     inkscape:window-x="72"
     inkscape:window-y="27"
     inkscape:window-maximized="1"
     scale-x="0.9" />
  <metadata
     id="metadata5">
    <rdf:RDF>
      <cc:Work
         rdf:about="">
        <dc:format>image/svg+xml</dc:format>
        <dc:type
           rdf:resource="http://purl.org/dc/dcmitype/StillImage" />
        <dc:title></dc:title>
      </cc:Work>
    </rdf:RDF>
  </metadata>
  <g
     inkscape:label="Layer 1"
     inkscape:groupmode="layer"
     id="layer1"
     transform="translate(-76.555672,-7.8155105)">
    <g
       id="g4858"
       transform="rotate(-129.2,78.729675,11.121691)">
      <g
         id="g1000"
         transform="rotate(-70.5,78.172467,11.731777)">
        <path
           transform="rotate(90,78.785778,11.665184)"
           sodipodi:type="spiral"
           style="fill:none;fill-opacity:1;fill-rule:evenodd;stroke:none;stroke-width:0.26458332"
           id="path4666-5-1-67"
           sodipodi:cx="79.36132"
           sodipodi:cy="11.373683"
           sodipodi:expansion="1.55"
           sodipodi:revolution="1.9"
           sodipodi:radius="3.3252139"
           sodipodi:argument="-21.230871"
           sodipodi:t0="0"
           d="m 79.36132,11.373683 c -0.05231,-0.04975 0.06706,-0.10333 0.09882,-0.103916 0.194355,-0.0036 0.251147,0.246606 0.205462,0.393285 -0.109058,0.350147 -0.551644,0.420933 -0.846776,0.281086 -0.529993,-0.251133 -0.61799,-0.945379 -0.348507,-1.417776 0.418997,-0.7344874 1.41339,-0.84021 2.088451,-0.411857 0.96195,0.610394 1.085628,1.946865 0.472939,2.847686 -0.823481,1.210741 -2.539709,1.352628 -3.687628,0.532712 -0.81689,-0.583474 -1.281905,-1.561357 -1.279068,-2.558739" />
        <path
           transform="rotate(90,-11.775467,78.70869)"
           sodipodi:type="spiral"
           style="fill:none;fill-opacity:1;fill-rule:evenodd;stroke:#000000;stroke-width:0.8154;stroke-miterlimit:4;stroke-dasharray:none;stroke-opacity:1"
           id="path4666-5-1-3-3"
           sodipodi:cx="-78.852005"
           sodipodi:cy="-11.052651"
           sodipodi:expansion="0.63"
           sodipodi:revolution="1.1"
           sodipodi:radius="3.3252139"
           sodipodi:argument="-21.230871"
           sodipodi:t0="0"
           d="m -78.852005,-11.052651 c -0.676007,-0.64287 0.297535,-1.187719 0.901033,-0.947479 0.925146,0.36828 1.044968,1.580738 0.565252,2.3418861 -0.699733,1.110243 -2.251556,1.2345629 -3.266512,0.4986161 -1.296046,-0.9397662 -1.422041,-2.8237812 -0.468945,-4.0509602 0.418241,-0.538515 1.010978,-0.928579 1.666664,-1.112236" />
        <path
           transform="rotate(-90,10.909295,-78.15563)"
           sodipodi:type="spiral"
           style="fill:none;fill-opacity:1;fill-rule:evenodd;stroke:#000000;stroke-width:0.8154;stroke-miterlimit:4;stroke-dasharray:none;stroke-opacity:1"
           id="path4666-5-1-3-3-5"
           sodipodi:cx="-78.852005"
           sodipodi:cy="-11.052651"
           sodipodi:expansion="0.63"
           sodipodi:revolution="1.1"
           sodipodi:radius="3.3252139"
           sodipodi:argument="-21.230871"
           sodipodi:t0="0"
           d="m -78.852005,-11.052651 c -0.676007,-0.64287 0.297535,-1.187719 0.901033,-0.947479 0.925146,0.36828 1.044968,1.580738 0.565252,2.3418861 -0.699733,1.110243 -2.251556,1.2345629 -3.266512,0.4986161 -1.296046,-0.9397662 -1.422041,-2.8237812 -0.468945,-4.0509602 0.418241,-0.538515 1.010978,-0.928579 1.666664,-1.112236" />
      </g>
    </g>
  </g>
</svg>
